<svg xmlns="http://www.w3.org/2000/svg" viewBox="0 0 351.12 351.12"><defs><style>.cls-1{fill:#bb91c2;stroke:#ba91c2;}.cls-1,.cls-3{stroke-miterlimit:10;}.cls-2{fill:#1c0e45;}.cls-3{fill:#fff;stroke:#262262;stroke-width:2px;}.cls-4{fill:#1b144e;}.cls-5{font-size:135.76px;fill:#58246b;font-family:Ethnocentric;}</style></defs><g id="Layer_2" data-name="Layer 2"><g id="Layer_1-2" data-name="Layer 1"><circle class="cls-1" cx="175.56" cy="175.56" r="175.06"/><ellipse class="cls-2" cx="175.56" cy="304.11" rx="87.93" ry="31.22"/><path class="cls-3" d="M295.9,178.74a192.54,192.54,0,0,0-23.68-71.46,178.35,178.35,0,0,0-25.51-34.75c-12.42-12.85-29.09-29.63-56.12-34.41a86,86,0,0,0-14.42-1.29h0a87.36,87.36,0,0,0-16,1.36C133.37,43,116.9,59.61,104.42,72.53,101.8,75.24,90.3,87.36,78.9,107.28a192.73,192.73,0,0,0-23.68,71.46C53,196.67,50.79,215,58.3,238.09c3.36,10.33,8,24.09,21.52,38.42,23.08,24.49,54.54,32.1,63,34.05a149.52,149.52,0,0,0,31.6,3.73v0h2.22v0a149.52,149.52,0,0,0,31.6-3.73c8.49-1.95,39.95-9.56,63-34.05,13.5-14.33,18.16-28.09,21.53-38.42C300.34,215,298.11,196.67,295.9,178.74Z"/><path class="cls-4" d="M131.35,48.61A48.14,48.14,0,0,0,125.07,53c-1.18,1-2.24,1.93-3.2,2.87l25.15,16-2.61,28L182,118.54q1.2,23.6,2.41,47.21l3.3-49.58-37.15-19,2.56-27.93"/><text class="cls-5" transform="translate(111.73 253.85)">H</text></g></g></svg>